<mxfile host="app.diagrams.net" modified="2023-06-05T17:07:20.350Z" agent="Mozilla/5.0 (Windows NT 10.0; Win64; x64) AppleWebKit/537.36 (KHTML, like Gecko) Chrome/113.0.0.0 Safari/537.36" etag="KWTNR0-ePAuxm5wfVxtv" version="21.3.7" type="device">
  <diagram id="prtHgNgQTEPvFCAcTncT" name="Page-1">
    <mxGraphModel dx="4526" dy="736" grid="1" gridSize="10" guides="1" tooltips="1" connect="1" arrows="1" fold="1" page="1" pageScale="1" pageWidth="827" pageHeight="1169" math="0" shadow="0">
      <root>
        <mxCell id="0" />
        <mxCell id="1" parent="0" />
        <mxCell id="cpfl89Clpz6kmOuRWH5I-146" style="edgeStyle=orthogonalEdgeStyle;rounded=0;orthogonalLoop=1;jettySize=auto;html=1;exitX=0.5;exitY=1;exitDx=0;exitDy=0;entryX=0.5;entryY=0;entryDx=0;entryDy=0;" parent="1" source="cpfl89Clpz6kmOuRWH5I-105" target="cpfl89Clpz6kmOuRWH5I-25" edge="1">
          <mxGeometry relative="1" as="geometry" />
        </mxCell>
        <mxCell id="cpfl89Clpz6kmOuRWH5I-105" value="" style="rounded=0;whiteSpace=wrap;html=1;" parent="1" vertex="1">
          <mxGeometry x="-2095" y="410" width="230" height="310" as="geometry" />
        </mxCell>
        <mxCell id="cpfl89Clpz6kmOuRWH5I-4" value="Register" style="rounded=1;whiteSpace=wrap;html=1;" parent="1" vertex="1">
          <mxGeometry x="-2470" y="610" width="110" height="20" as="geometry" />
        </mxCell>
        <mxCell id="cpfl89Clpz6kmOuRWH5I-122" style="edgeStyle=orthogonalEdgeStyle;rounded=0;orthogonalLoop=1;jettySize=auto;html=1;exitX=1;exitY=0.5;exitDx=0;exitDy=0;entryX=0.75;entryY=0;entryDx=0;entryDy=0;" parent="1" source="cpfl89Clpz6kmOuRWH5I-5" target="cpfl89Clpz6kmOuRWH5I-105" edge="1">
          <mxGeometry relative="1" as="geometry" />
        </mxCell>
        <mxCell id="cpfl89Clpz6kmOuRWH5I-5" value="" style="rounded=0;whiteSpace=wrap;html=1;" parent="1" vertex="1">
          <mxGeometry x="-2170" y="50" width="200" height="280" as="geometry" />
        </mxCell>
        <mxCell id="cpfl89Clpz6kmOuRWH5I-7" value="View My Orders" style="rounded=1;whiteSpace=wrap;html=1;" parent="1" vertex="1">
          <mxGeometry x="-690" y="815" width="110" height="20" as="geometry" />
        </mxCell>
        <mxCell id="cpfl89Clpz6kmOuRWH5I-10" value="" style="whiteSpace=wrap;html=1;aspect=fixed;" parent="1" vertex="1">
          <mxGeometry x="-2775" y="100" width="110" height="110" as="geometry" />
        </mxCell>
        <mxCell id="cpfl89Clpz6kmOuRWH5I-11" value="Change Password" style="rounded=1;whiteSpace=wrap;html=1;" parent="1" vertex="1">
          <mxGeometry x="-2775" y="70" width="110" height="20" as="geometry" />
        </mxCell>
        <mxCell id="cpfl89Clpz6kmOuRWH5I-14" value="Register" style="rounded=1;whiteSpace=wrap;html=1;" parent="1" vertex="1">
          <mxGeometry x="-2470" y="610" width="110" height="20" as="geometry" />
        </mxCell>
        <mxCell id="cpfl89Clpz6kmOuRWH5I-15" value="Products&amp;nbsp;" style="rounded=1;whiteSpace=wrap;html=1;" parent="1" vertex="1">
          <mxGeometry x="-2050" y="385" width="110" height="20" as="geometry" />
        </mxCell>
        <mxCell id="cpfl89Clpz6kmOuRWH5I-19" value="My&amp;nbsp; Cart" style="rounded=1;whiteSpace=wrap;html=1;" parent="1" vertex="1">
          <mxGeometry x="-1692.5" y="390" width="110" height="20" as="geometry" />
        </mxCell>
        <mxCell id="cpfl89Clpz6kmOuRWH5I-20" value="" style="rounded=0;whiteSpace=wrap;html=1;" parent="1" vertex="1">
          <mxGeometry x="-1420" y="422.5" width="220" height="317.5" as="geometry" />
        </mxCell>
        <mxCell id="cpfl89Clpz6kmOuRWH5I-21" value="CheckOut" style="rounded=1;whiteSpace=wrap;html=1;" parent="1" vertex="1">
          <mxGeometry x="-1365" y="390" width="110" height="20" as="geometry" />
        </mxCell>
        <mxCell id="cpfl89Clpz6kmOuRWH5I-22" value="" style="whiteSpace=wrap;html=1;aspect=fixed;" parent="1" vertex="1">
          <mxGeometry x="-1025" y="490" width="110" height="110" as="geometry" />
        </mxCell>
        <mxCell id="cpfl89Clpz6kmOuRWH5I-23" value="Order Confirmation" style="rounded=1;whiteSpace=wrap;html=1;" parent="1" vertex="1">
          <mxGeometry x="-1025" y="460" width="110" height="20" as="geometry" />
        </mxCell>
        <mxCell id="cpfl89Clpz6kmOuRWH5I-24" value="Confirmation Email Send to user" style="rounded=1;whiteSpace=wrap;html=1;" parent="1" vertex="1">
          <mxGeometry x="-865" y="500" width="140" height="60" as="geometry" />
        </mxCell>
        <mxCell id="cpfl89Clpz6kmOuRWH5I-25" value="Product Details" style="rounded=1;whiteSpace=wrap;html=1;" parent="1" vertex="1">
          <mxGeometry x="-2035" y="790" width="110" height="20" as="geometry" />
        </mxCell>
        <mxCell id="cpfl89Clpz6kmOuRWH5I-37" value="" style="endArrow=classic;html=1;rounded=0;entryX=0;entryY=0.5;entryDx=0;entryDy=0;" parent="1" target="cpfl89Clpz6kmOuRWH5I-22" edge="1">
          <mxGeometry width="50" height="50" relative="1" as="geometry">
            <mxPoint x="-1085" y="544.5" as="sourcePoint" />
            <mxPoint x="-1045" y="544.5" as="targetPoint" />
            <Array as="points" />
          </mxGeometry>
        </mxCell>
        <mxCell id="cpfl89Clpz6kmOuRWH5I-42" value="" style="endArrow=classic;html=1;rounded=0;" parent="1" edge="1">
          <mxGeometry width="50" height="50" relative="1" as="geometry">
            <mxPoint x="-915" y="539.5" as="sourcePoint" />
            <mxPoint x="-875" y="540" as="targetPoint" />
            <Array as="points" />
          </mxGeometry>
        </mxCell>
        <mxCell id="cpfl89Clpz6kmOuRWH5I-58" value="" style="rounded=0;whiteSpace=wrap;html=1;" parent="1" vertex="1">
          <mxGeometry x="-2520" y="240" width="230" height="310" as="geometry" />
        </mxCell>
        <mxCell id="cpfl89Clpz6kmOuRWH5I-59" value="Home Screen" style="rounded=1;whiteSpace=wrap;html=1;" parent="1" vertex="1">
          <mxGeometry x="-2460" y="210" width="110" height="20" as="geometry" />
        </mxCell>
        <mxCell id="cpfl89Clpz6kmOuRWH5I-60" value="Sign in" style="rounded=1;whiteSpace=wrap;html=1;" parent="1" vertex="1">
          <mxGeometry x="-2900" y="340" width="110" height="20" as="geometry" />
        </mxCell>
        <mxCell id="cpfl89Clpz6kmOuRWH5I-61" value="&lt;span style=&quot;color: rgba(0, 0, 0, 0); font-family: monospace; font-size: 0px; text-align: start;&quot;&gt;s&lt;/span&gt;" style="rounded=0;whiteSpace=wrap;html=1;" parent="1" vertex="1">
          <mxGeometry x="-2950" y="370" width="230" height="310" as="geometry" />
        </mxCell>
        <mxCell id="cpfl89Clpz6kmOuRWH5I-65" value="" style="rounded=0;whiteSpace=wrap;html=1;" parent="1" vertex="1">
          <mxGeometry x="-2910" y="425" width="150" height="25" as="geometry" />
        </mxCell>
        <mxCell id="cpfl89Clpz6kmOuRWH5I-66" value="" style="rounded=0;whiteSpace=wrap;html=1;" parent="1" vertex="1">
          <mxGeometry x="-2910" y="470" width="150" height="20" as="geometry" />
        </mxCell>
        <mxCell id="cpfl89Clpz6kmOuRWH5I-76" style="edgeStyle=orthogonalEdgeStyle;rounded=0;orthogonalLoop=1;jettySize=auto;html=1;exitX=1;exitY=0.25;exitDx=0;exitDy=0;entryX=-0.01;entryY=0.378;entryDx=0;entryDy=0;entryPerimeter=0;" parent="1" source="cpfl89Clpz6kmOuRWH5I-67" target="cpfl89Clpz6kmOuRWH5I-58" edge="1">
          <mxGeometry relative="1" as="geometry" />
        </mxCell>
        <mxCell id="cpfl89Clpz6kmOuRWH5I-224" value="Success" style="edgeLabel;html=1;align=center;verticalAlign=middle;resizable=0;points=[];fontSize=12;" parent="cpfl89Clpz6kmOuRWH5I-76" connectable="0" vertex="1">
          <mxGeometry x="-0.625" relative="1" as="geometry">
            <mxPoint as="offset" />
          </mxGeometry>
        </mxCell>
        <mxCell id="cpfl89Clpz6kmOuRWH5I-67" value="Login" style="rounded=0;whiteSpace=wrap;html=1;" parent="1" vertex="1">
          <mxGeometry x="-2900" y="520" width="120" height="30" as="geometry" />
        </mxCell>
        <mxCell id="cpfl89Clpz6kmOuRWH5I-88" style="edgeStyle=orthogonalEdgeStyle;rounded=0;orthogonalLoop=1;jettySize=auto;html=1;exitX=1;exitY=0.5;exitDx=0;exitDy=0;entryX=0;entryY=0.5;entryDx=0;entryDy=0;" parent="1" source="cpfl89Clpz6kmOuRWH5I-68" target="cpfl89Clpz6kmOuRWH5I-80" edge="1">
          <mxGeometry relative="1" as="geometry">
            <Array as="points">
              <mxPoint x="-2740" y="825" />
            </Array>
          </mxGeometry>
        </mxCell>
        <mxCell id="cpfl89Clpz6kmOuRWH5I-68" value="New User&lt;u style=&quot;font-weight: bold;&quot;&gt; Signu Up here&lt;/u&gt;" style="text;html=1;strokeColor=none;fillColor=none;align=center;verticalAlign=middle;whiteSpace=wrap;rounded=0;" parent="1" vertex="1">
          <mxGeometry x="-2910" y="585" width="140" height="30" as="geometry" />
        </mxCell>
        <mxCell id="cpfl89Clpz6kmOuRWH5I-69" value="Enter Password" style="text;html=1;strokeColor=none;fillColor=none;align=center;verticalAlign=middle;whiteSpace=wrap;rounded=0;" parent="1" vertex="1">
          <mxGeometry x="-2895" y="465" width="120" height="30" as="geometry" />
        </mxCell>
        <mxCell id="cpfl89Clpz6kmOuRWH5I-70" value="Enter Email/ mobileNo" style="text;html=1;strokeColor=none;fillColor=none;align=center;verticalAlign=middle;whiteSpace=wrap;rounded=0;" parent="1" vertex="1">
          <mxGeometry x="-2910" y="422.5" width="150" height="30" as="geometry" />
        </mxCell>
        <mxCell id="cpfl89Clpz6kmOuRWH5I-80" value="" style="rounded=0;whiteSpace=wrap;html=1;" parent="1" vertex="1">
          <mxGeometry x="-2530" y="640" width="250" height="370" as="geometry" />
        </mxCell>
        <mxCell id="cpfl89Clpz6kmOuRWH5I-82" value="Enter&amp;nbsp; full name" style="rounded=0;whiteSpace=wrap;html=1;" parent="1" vertex="1">
          <mxGeometry x="-2505" y="670" width="200" height="30" as="geometry" />
        </mxCell>
        <mxCell id="cpfl89Clpz6kmOuRWH5I-83" value="Enter&amp;nbsp; Email id" style="rounded=0;whiteSpace=wrap;html=1;" parent="1" vertex="1">
          <mxGeometry x="-2505" y="710" width="200" height="30" as="geometry" />
        </mxCell>
        <mxCell id="cpfl89Clpz6kmOuRWH5I-84" value="Enter&amp;nbsp; Mobile No" style="rounded=0;whiteSpace=wrap;html=1;" parent="1" vertex="1">
          <mxGeometry x="-2505" y="750" width="200" height="30" as="geometry" />
        </mxCell>
        <mxCell id="cpfl89Clpz6kmOuRWH5I-85" value="Enter&amp;nbsp; City" style="rounded=0;whiteSpace=wrap;html=1;" parent="1" vertex="1">
          <mxGeometry x="-2505" y="790" width="200" height="30" as="geometry" />
        </mxCell>
        <mxCell id="cpfl89Clpz6kmOuRWH5I-86" value="Enter&amp;nbsp; address" style="rounded=0;whiteSpace=wrap;html=1;" parent="1" vertex="1">
          <mxGeometry x="-2505" y="830" width="200" height="30" as="geometry" />
        </mxCell>
        <mxCell id="cpfl89Clpz6kmOuRWH5I-90" value="Select Gender" style="rounded=0;whiteSpace=wrap;html=1;" parent="1" vertex="1">
          <mxGeometry x="-2505" y="870" width="200" height="30" as="geometry" />
        </mxCell>
        <mxCell id="cpfl89Clpz6kmOuRWH5I-93" style="edgeStyle=orthogonalEdgeStyle;rounded=0;orthogonalLoop=1;jettySize=auto;html=1;exitX=0.5;exitY=1;exitDx=0;exitDy=0;entryX=0.455;entryY=1.001;entryDx=0;entryDy=0;entryPerimeter=0;" parent="1" source="cpfl89Clpz6kmOuRWH5I-92" target="cpfl89Clpz6kmOuRWH5I-61" edge="1">
          <mxGeometry relative="1" as="geometry" />
        </mxCell>
        <mxCell id="cpfl89Clpz6kmOuRWH5I-92" value="Sign Up" style="rounded=0;whiteSpace=wrap;html=1;" parent="1" vertex="1">
          <mxGeometry x="-2465" y="920" width="120" height="30" as="geometry" />
        </mxCell>
        <mxCell id="cpfl89Clpz6kmOuRWH5I-95" value="" style="rounded=0;whiteSpace=wrap;html=1;" parent="1" vertex="1">
          <mxGeometry x="-2450" y="350" width="35" height="50" as="geometry" />
        </mxCell>
        <mxCell id="cpfl89Clpz6kmOuRWH5I-96" value="" style="rounded=0;whiteSpace=wrap;html=1;" parent="1" vertex="1">
          <mxGeometry x="-2410" y="350" width="35" height="50" as="geometry" />
        </mxCell>
        <mxCell id="cpfl89Clpz6kmOuRWH5I-97" value="" style="rounded=0;whiteSpace=wrap;html=1;" parent="1" vertex="1">
          <mxGeometry x="-2370" y="350" width="35" height="50" as="geometry" />
        </mxCell>
        <mxCell id="cpfl89Clpz6kmOuRWH5I-101" value="" style="rounded=0;whiteSpace=wrap;html=1;" parent="1" vertex="1">
          <mxGeometry x="-2495" y="350" width="35" height="50" as="geometry" />
        </mxCell>
        <mxCell id="cpfl89Clpz6kmOuRWH5I-102" value="" style="endArrow=none;html=1;rounded=0;exitX=0;exitY=0.25;exitDx=0;exitDy=0;entryX=1;entryY=0.25;entryDx=0;entryDy=0;" parent="1" source="cpfl89Clpz6kmOuRWH5I-58" target="cpfl89Clpz6kmOuRWH5I-58" edge="1">
          <mxGeometry width="50" height="50" relative="1" as="geometry">
            <mxPoint x="-2200" y="450" as="sourcePoint" />
            <mxPoint x="-2150" y="400" as="targetPoint" />
          </mxGeometry>
        </mxCell>
        <mxCell id="cpfl89Clpz6kmOuRWH5I-124" style="edgeStyle=orthogonalEdgeStyle;rounded=0;orthogonalLoop=1;jettySize=auto;html=1;exitX=1;exitY=0.5;exitDx=0;exitDy=0;entryX=0;entryY=0.5;entryDx=0;entryDy=0;" parent="1" source="cpfl89Clpz6kmOuRWH5I-103" target="cpfl89Clpz6kmOuRWH5I-5" edge="1">
          <mxGeometry relative="1" as="geometry">
            <Array as="points">
              <mxPoint x="-2250" y="335" />
              <mxPoint x="-2250" y="190" />
            </Array>
          </mxGeometry>
        </mxCell>
        <mxCell id="cpfl89Clpz6kmOuRWH5I-103" value="Categories" style="text;html=1;strokeColor=none;fillColor=none;align=center;verticalAlign=middle;whiteSpace=wrap;rounded=0;" parent="1" vertex="1">
          <mxGeometry x="-2520" y="320" width="90" height="30" as="geometry" />
        </mxCell>
        <mxCell id="cpfl89Clpz6kmOuRWH5I-104" value="" style="endArrow=none;html=1;rounded=0;exitX=-0.003;exitY=0.587;exitDx=0;exitDy=0;exitPerimeter=0;" parent="1" source="cpfl89Clpz6kmOuRWH5I-58" edge="1">
          <mxGeometry width="50" height="50" relative="1" as="geometry">
            <mxPoint x="-2200" y="450" as="sourcePoint" />
            <mxPoint x="-2290" y="422" as="targetPoint" />
          </mxGeometry>
        </mxCell>
        <mxCell id="cpfl89Clpz6kmOuRWH5I-13" value="" style="rounded=0;whiteSpace=wrap;html=1;" parent="1" vertex="1">
          <mxGeometry x="-2040" y="527.5" width="50" height="75" as="geometry" />
        </mxCell>
        <mxCell id="cpfl89Clpz6kmOuRWH5I-107" value="" style="rounded=0;whiteSpace=wrap;html=1;" parent="1" vertex="1">
          <mxGeometry x="-1960" y="527.5" width="50" height="75" as="geometry" />
        </mxCell>
        <mxCell id="cpfl89Clpz6kmOuRWH5I-110" value="" style="rounded=0;whiteSpace=wrap;html=1;" parent="1" vertex="1">
          <mxGeometry x="-2040" y="610" width="50" height="75" as="geometry" />
        </mxCell>
        <mxCell id="cpfl89Clpz6kmOuRWH5I-111" value="" style="rounded=0;whiteSpace=wrap;html=1;" parent="1" vertex="1">
          <mxGeometry x="-1960" y="610" width="50" height="75" as="geometry" />
        </mxCell>
        <mxCell id="cpfl89Clpz6kmOuRWH5I-112" value="" style="rounded=0;whiteSpace=wrap;html=1;" parent="1" vertex="1">
          <mxGeometry x="-1960" y="442.5" width="50" height="75" as="geometry" />
        </mxCell>
        <mxCell id="cpfl89Clpz6kmOuRWH5I-113" value="" style="rounded=0;whiteSpace=wrap;html=1;" parent="1" vertex="1">
          <mxGeometry x="-2040" y="442.5" width="50" height="75" as="geometry" />
        </mxCell>
        <mxCell id="cpfl89Clpz6kmOuRWH5I-116" value="Categories" style="rounded=1;whiteSpace=wrap;html=1;" parent="1" vertex="1">
          <mxGeometry x="-2140" y="20" width="110" height="20" as="geometry" />
        </mxCell>
        <mxCell id="cpfl89Clpz6kmOuRWH5I-117" value="Categories" style="text;html=1;strokeColor=none;fillColor=none;align=center;verticalAlign=middle;whiteSpace=wrap;rounded=0;" parent="1" vertex="1">
          <mxGeometry x="-2110" y="50" width="60" height="30" as="geometry" />
        </mxCell>
        <mxCell id="cpfl89Clpz6kmOuRWH5I-118" value="" style="rounded=0;whiteSpace=wrap;html=1;" parent="1" vertex="1">
          <mxGeometry x="-2150" y="84" width="160" height="50" as="geometry" />
        </mxCell>
        <mxCell id="cpfl89Clpz6kmOuRWH5I-119" value="" style="rounded=0;whiteSpace=wrap;html=1;" parent="1" vertex="1">
          <mxGeometry x="-2150" y="140" width="160" height="50" as="geometry" />
        </mxCell>
        <mxCell id="cpfl89Clpz6kmOuRWH5I-120" value="" style="rounded=0;whiteSpace=wrap;html=1;" parent="1" vertex="1">
          <mxGeometry x="-2150" y="197" width="160" height="50" as="geometry" />
        </mxCell>
        <mxCell id="cpfl89Clpz6kmOuRWH5I-121" value="" style="rounded=0;whiteSpace=wrap;html=1;" parent="1" vertex="1">
          <mxGeometry x="-2149" y="254" width="160" height="50" as="geometry" />
        </mxCell>
        <mxCell id="cpfl89Clpz6kmOuRWH5I-131" style="edgeStyle=orthogonalEdgeStyle;rounded=0;orthogonalLoop=1;jettySize=auto;html=1;exitX=1;exitY=0.5;exitDx=0;exitDy=0;entryX=0.009;entryY=0.579;entryDx=0;entryDy=0;entryPerimeter=0;" parent="1" source="cpfl89Clpz6kmOuRWH5I-125" target="cpfl89Clpz6kmOuRWH5I-105" edge="1">
          <mxGeometry relative="1" as="geometry" />
        </mxCell>
        <mxCell id="cpfl89Clpz6kmOuRWH5I-125" value="&amp;nbsp;Lates Products" style="text;html=1;strokeColor=none;fillColor=none;align=center;verticalAlign=middle;whiteSpace=wrap;rounded=0;" parent="1" vertex="1">
          <mxGeometry x="-2533.75" y="422.5" width="117.5" height="30" as="geometry" />
        </mxCell>
        <mxCell id="cpfl89Clpz6kmOuRWH5I-126" value="" style="rounded=0;whiteSpace=wrap;html=1;" parent="1" vertex="1">
          <mxGeometry x="-2495" y="452.5" width="50" height="75" as="geometry" />
        </mxCell>
        <mxCell id="cpfl89Clpz6kmOuRWH5I-127" value="" style="rounded=0;whiteSpace=wrap;html=1;" parent="1" vertex="1">
          <mxGeometry x="-2440" y="452.5" width="50" height="75" as="geometry" />
        </mxCell>
        <mxCell id="cpfl89Clpz6kmOuRWH5I-128" value="" style="rounded=0;whiteSpace=wrap;html=1;" parent="1" vertex="1">
          <mxGeometry x="-2385" y="452.5" width="50" height="75" as="geometry" />
        </mxCell>
        <mxCell id="cpfl89Clpz6kmOuRWH5I-132" value="" style="rounded=0;whiteSpace=wrap;html=1;" parent="1" vertex="1">
          <mxGeometry x="-2090" y="825" width="225" height="295" as="geometry" />
        </mxCell>
        <mxCell id="cpfl89Clpz6kmOuRWH5I-242" style="edgeStyle=orthogonalEdgeStyle;rounded=0;orthogonalLoop=1;jettySize=auto;html=1;exitX=0.5;exitY=1;exitDx=0;exitDy=0;entryX=0.25;entryY=1;entryDx=0;entryDy=0;fontSize=12;" parent="1" source="cpfl89Clpz6kmOuRWH5I-135" target="cpfl89Clpz6kmOuRWH5I-228" edge="1">
          <mxGeometry relative="1" as="geometry">
            <Array as="points">
              <mxPoint x="-2024" y="1060" />
              <mxPoint x="-1690" y="1060" />
            </Array>
          </mxGeometry>
        </mxCell>
        <mxCell id="cpfl89Clpz6kmOuRWH5I-135" value="Add To Cart&lt;span style=&quot;color: rgba(0, 0, 0, 0); font-family: monospace; font-size: 0px; text-align: start;&quot;&gt;%3CmxGraphModel%3E%3Croot%3E%3CmxCell%20id%3D%220%22%2F%3E%3CmxCell%20id%3D%221%22%20parent%3D%220%22%2F%3E%3CmxCell%20id%3D%222%22%20value%3D%22%22%20style%3D%22rounded%3D0%3BwhiteSpace%3Dwrap%3Bhtml%3D1%3B%22%20vertex%3D%221%22%20parent%3D%221%22%3E%3CmxGeometry%20x%3D%22-1205%22%20y%3D%22490%22%20width%3D%22120%22%20height%3D%22220%22%20as%3D%22geometry%22%2F%3E%3C%2FmxCell%3E%3C%2Froot%3E%3C%2FmxGraphModel%3E&lt;/span&gt;" style="rounded=0;whiteSpace=wrap;html=1;" parent="1" vertex="1">
          <mxGeometry x="-2067" y="990" width="85" height="25" as="geometry" />
        </mxCell>
        <mxCell id="cpfl89Clpz6kmOuRWH5I-137" value="BUY Now" style="rounded=0;whiteSpace=wrap;html=1;" parent="1" vertex="1">
          <mxGeometry x="-1960" y="990" width="85" height="25" as="geometry" />
        </mxCell>
        <mxCell id="cpfl89Clpz6kmOuRWH5I-142" value="Image" style="rounded=0;whiteSpace=wrap;html=1;" parent="1" vertex="1">
          <mxGeometry x="-2062" y="860" width="167" height="80" as="geometry" />
        </mxCell>
        <mxCell id="PKRQYKEN7jemMwyMgifE-2" style="edgeStyle=orthogonalEdgeStyle;rounded=0;orthogonalLoop=1;jettySize=auto;html=1;exitX=1;exitY=0.25;exitDx=0;exitDy=0;entryX=0;entryY=0.5;entryDx=0;entryDy=0;" parent="1" source="cpfl89Clpz6kmOuRWH5I-138" target="cpfl89Clpz6kmOuRWH5I-244" edge="1">
          <mxGeometry relative="1" as="geometry">
            <mxPoint x="-1800" y="560" as="targetPoint" />
          </mxGeometry>
        </mxCell>
        <mxCell id="cpfl89Clpz6kmOuRWH5I-138" value="Add TO WIshList" style="rounded=0;whiteSpace=wrap;html=1;" parent="1" vertex="1">
          <mxGeometry x="-2038.5" y="950" width="120" height="20" as="geometry" />
        </mxCell>
        <mxCell id="cpfl89Clpz6kmOuRWH5I-145" value="Banner" style="text;html=1;strokeColor=none;fillColor=none;align=center;verticalAlign=middle;whiteSpace=wrap;rounded=0;" parent="1" vertex="1">
          <mxGeometry x="-2435" y="260" width="60" height="30" as="geometry" />
        </mxCell>
        <mxCell id="cpfl89Clpz6kmOuRWH5I-152" value="WIshList" style="rounded=0;whiteSpace=wrap;html=1;" parent="1" vertex="1">
          <mxGeometry x="-1978.5" y="830" width="48.5" height="20" as="geometry" />
        </mxCell>
        <mxCell id="cpfl89Clpz6kmOuRWH5I-157" value="Recently bought" style="text;html=1;strokeColor=none;fillColor=none;align=center;verticalAlign=middle;whiteSpace=wrap;rounded=0;" parent="1" vertex="1">
          <mxGeometry x="-2100" y="1050" width="140" height="30" as="geometry" />
        </mxCell>
        <mxCell id="cpfl89Clpz6kmOuRWH5I-171" value="" style="rounded=0;whiteSpace=wrap;html=1;" parent="1" vertex="1">
          <mxGeometry x="-1925" y="1080" width="30" height="30" as="geometry" />
        </mxCell>
        <mxCell id="cpfl89Clpz6kmOuRWH5I-176" value="" style="rounded=0;whiteSpace=wrap;html=1;" parent="1" vertex="1">
          <mxGeometry x="-2020" y="1080" width="30" height="30" as="geometry" />
        </mxCell>
        <mxCell id="cpfl89Clpz6kmOuRWH5I-177" value="" style="rounded=0;whiteSpace=wrap;html=1;" parent="1" vertex="1">
          <mxGeometry x="-1970" y="1080" width="30" height="30" as="geometry" />
        </mxCell>
        <mxCell id="cpfl89Clpz6kmOuRWH5I-178" value="" style="rounded=0;whiteSpace=wrap;html=1;" parent="1" vertex="1">
          <mxGeometry x="-2067" y="1080" width="30" height="30" as="geometry" />
        </mxCell>
        <mxCell id="cpfl89Clpz6kmOuRWH5I-179" value="&lt;span style=&quot;font-size: 10px;&quot;&gt;My Cart&lt;/span&gt;" style="rounded=0;whiteSpace=wrap;html=1;" parent="1" vertex="1">
          <mxGeometry x="-1918.5" y="830" width="40" height="20" as="geometry" />
        </mxCell>
        <mxCell id="cpfl89Clpz6kmOuRWH5I-189" value="&lt;span style=&quot;font-size: 10px;&quot;&gt;My Cart&lt;/span&gt;" style="rounded=0;whiteSpace=wrap;html=1;" parent="1" vertex="1">
          <mxGeometry x="-1925" y="410" width="40" height="20" as="geometry" />
        </mxCell>
        <mxCell id="cpfl89Clpz6kmOuRWH5I-190" value="WIshList" style="rounded=0;whiteSpace=wrap;html=1;" parent="1" vertex="1">
          <mxGeometry x="-1982" y="410" width="48.5" height="20" as="geometry" />
        </mxCell>
        <mxCell id="cpfl89Clpz6kmOuRWH5I-193" value="" style="rounded=0;whiteSpace=wrap;html=1;" parent="1" vertex="1">
          <mxGeometry x="-1750" y="420" width="225" height="315" as="geometry" />
        </mxCell>
        <mxCell id="cpfl89Clpz6kmOuRWH5I-200" value="" style="rounded=0;whiteSpace=wrap;html=1;fontSize=10;" parent="1" vertex="1">
          <mxGeometry x="-1702.5" y="480" width="165" height="57.5" as="geometry" />
        </mxCell>
        <mxCell id="cpfl89Clpz6kmOuRWH5I-202" value="Change Quantity" style="rounded=0;whiteSpace=wrap;html=1;fontSize=10;" parent="1" vertex="1">
          <mxGeometry x="-1640" y="515" width="80" height="20" as="geometry" />
        </mxCell>
        <mxCell id="cpfl89Clpz6kmOuRWH5I-205" value="Delete Item" style="shape=delay;whiteSpace=wrap;html=1;fontSize=10;direction=west;" parent="1" vertex="1">
          <mxGeometry x="-1600" y="483.75" width="60" height="20" as="geometry" />
        </mxCell>
        <mxCell id="cpfl89Clpz6kmOuRWH5I-208" value="Product Name" style="text;html=1;strokeColor=none;fillColor=none;align=center;verticalAlign=middle;whiteSpace=wrap;rounded=0;fontSize=10;" parent="1" vertex="1">
          <mxGeometry x="-1680" y="480" width="85" height="30" as="geometry" />
        </mxCell>
        <mxCell id="cpfl89Clpz6kmOuRWH5I-209" value="Image" style="text;html=1;strokeColor=none;fillColor=none;align=center;verticalAlign=middle;whiteSpace=wrap;rounded=0;fontSize=10;" parent="1" vertex="1">
          <mxGeometry x="-1732.5" y="500" width="85" height="30" as="geometry" />
        </mxCell>
        <mxCell id="cpfl89Clpz6kmOuRWH5I-210" value="" style="endArrow=none;html=1;rounded=0;fontSize=10;" parent="1" edge="1">
          <mxGeometry width="50" height="50" relative="1" as="geometry">
            <mxPoint x="-1670" y="540" as="sourcePoint" />
            <mxPoint x="-1670" y="480" as="targetPoint" />
          </mxGeometry>
        </mxCell>
        <mxCell id="cpfl89Clpz6kmOuRWH5I-216" style="edgeStyle=orthogonalEdgeStyle;rounded=0;orthogonalLoop=1;jettySize=auto;html=1;exitX=1;exitY=0.5;exitDx=0;exitDy=0;entryX=0.005;entryY=0.419;entryDx=0;entryDy=0;entryPerimeter=0;fontSize=10;" parent="1" source="cpfl89Clpz6kmOuRWH5I-211" target="cpfl89Clpz6kmOuRWH5I-20" edge="1">
          <mxGeometry relative="1" as="geometry" />
        </mxCell>
        <mxCell id="cpfl89Clpz6kmOuRWH5I-211" value="CHeckout" style="rounded=0;whiteSpace=wrap;html=1;fontSize=10;" parent="1" vertex="1">
          <mxGeometry x="-1732.5" y="680" width="182.5" height="35" as="geometry" />
        </mxCell>
        <mxCell id="cpfl89Clpz6kmOuRWH5I-212" value="Clear cart" style="rounded=0;whiteSpace=wrap;html=1;fontSize=10;" parent="1" vertex="1">
          <mxGeometry x="-1600" y="427.5" width="60" height="20" as="geometry" />
        </mxCell>
        <mxCell id="cpfl89Clpz6kmOuRWH5I-231" style="edgeStyle=orthogonalEdgeStyle;rounded=0;orthogonalLoop=1;jettySize=auto;html=1;exitX=0.5;exitY=1;exitDx=0;exitDy=0;fontSize=12;" parent="1" source="cpfl89Clpz6kmOuRWH5I-228" edge="1">
          <mxGeometry relative="1" as="geometry">
            <mxPoint x="-1469.9999999999995" y="1089.9999999999998" as="targetPoint" />
            <Array as="points">
              <mxPoint x="-1655" y="1060" />
              <mxPoint x="-1470" y="1060" />
            </Array>
          </mxGeometry>
        </mxCell>
        <mxCell id="cpfl89Clpz6kmOuRWH5I-240" value="No" style="edgeLabel;html=1;align=center;verticalAlign=middle;resizable=0;points=[];fontSize=12;" parent="cpfl89Clpz6kmOuRWH5I-231" connectable="0" vertex="1">
          <mxGeometry x="-0.4281" y="3" relative="1" as="geometry">
            <mxPoint as="offset" />
          </mxGeometry>
        </mxCell>
        <mxCell id="cpfl89Clpz6kmOuRWH5I-237" style="edgeStyle=orthogonalEdgeStyle;rounded=0;orthogonalLoop=1;jettySize=auto;html=1;exitX=0.5;exitY=0;exitDx=0;exitDy=0;entryX=0.5;entryY=1;entryDx=0;entryDy=0;fontSize=12;" parent="1" source="cpfl89Clpz6kmOuRWH5I-228" target="cpfl89Clpz6kmOuRWH5I-193" edge="1">
          <mxGeometry relative="1" as="geometry" />
        </mxCell>
        <mxCell id="cpfl89Clpz6kmOuRWH5I-238" value="Yes" style="edgeLabel;html=1;align=center;verticalAlign=middle;resizable=0;points=[];fontSize=12;" parent="cpfl89Clpz6kmOuRWH5I-237" connectable="0" vertex="1">
          <mxGeometry x="-0.7452" y="3" relative="1" as="geometry">
            <mxPoint as="offset" />
          </mxGeometry>
        </mxCell>
        <mxCell id="cpfl89Clpz6kmOuRWH5I-228" value="Check if user if logged In" style="rounded=1;whiteSpace=wrap;html=1;" parent="1" vertex="1">
          <mxGeometry x="-1725" y="972.5" width="140" height="60" as="geometry" />
        </mxCell>
        <mxCell id="cpfl89Clpz6kmOuRWH5I-229" value="" style="edgeStyle=orthogonalEdgeStyle;rounded=0;orthogonalLoop=1;jettySize=auto;html=1;exitX=1;exitY=0.5;exitDx=0;exitDy=0;fontSize=10;endArrow=none;" parent="1" source="cpfl89Clpz6kmOuRWH5I-137" target="cpfl89Clpz6kmOuRWH5I-228" edge="1">
          <mxGeometry relative="1" as="geometry">
            <mxPoint x="-1875" y="1002.4999999999998" as="sourcePoint" />
            <mxPoint x="-1637.4615384615386" y="735" as="targetPoint" />
          </mxGeometry>
        </mxCell>
        <mxCell id="cpfl89Clpz6kmOuRWH5I-239" style="edgeStyle=orthogonalEdgeStyle;rounded=0;orthogonalLoop=1;jettySize=auto;html=1;exitX=1;exitY=0.25;exitDx=0;exitDy=0;entryX=0.75;entryY=1;entryDx=0;entryDy=0;fontSize=12;" parent="1" source="cpfl89Clpz6kmOuRWH5I-232" target="cpfl89Clpz6kmOuRWH5I-193" edge="1">
          <mxGeometry relative="1" as="geometry" />
        </mxCell>
        <mxCell id="cpfl89Clpz6kmOuRWH5I-241" value="Logged In Success" style="edgeLabel;html=1;align=center;verticalAlign=middle;resizable=0;points=[];fontSize=12;" parent="cpfl89Clpz6kmOuRWH5I-239" connectable="0" vertex="1">
          <mxGeometry x="-0.6129" y="-6" relative="1" as="geometry">
            <mxPoint as="offset" />
          </mxGeometry>
        </mxCell>
        <mxCell id="cpfl89Clpz6kmOuRWH5I-232" value="" style="whiteSpace=wrap;html=1;aspect=fixed;" parent="1" vertex="1">
          <mxGeometry x="-1540" y="1120" width="110" height="110" as="geometry" />
        </mxCell>
        <mxCell id="cpfl89Clpz6kmOuRWH5I-233" value="Sign in" style="rounded=1;whiteSpace=wrap;html=1;" parent="1" vertex="1">
          <mxGeometry x="-1540" y="1090" width="110" height="20" as="geometry" />
        </mxCell>
        <mxCell id="cpfl89Clpz6kmOuRWH5I-244" value="" style="rounded=0;whiteSpace=wrap;html=1;" parent="1" vertex="1">
          <mxGeometry x="-1752.5" y="42.5" width="220" height="317.5" as="geometry" />
        </mxCell>
        <mxCell id="cpfl89Clpz6kmOuRWH5I-246" value="WishList" style="rounded=1;whiteSpace=wrap;html=1;" parent="1" vertex="1">
          <mxGeometry x="-1702.5" y="12.5" width="110" height="20" as="geometry" />
        </mxCell>
        <mxCell id="PKRQYKEN7jemMwyMgifE-3" value="" style="rounded=0;whiteSpace=wrap;html=1;" parent="1" vertex="1">
          <mxGeometry x="-740" y="843.75" width="220" height="317.5" as="geometry" />
        </mxCell>
        <mxCell id="PKRQYKEN7jemMwyMgifE-1" value="" style="rounded=0;whiteSpace=wrap;html=1;fontSize=12;" parent="1" vertex="1">
          <mxGeometry x="-710" y="875" width="50" height="50" as="geometry" />
        </mxCell>
        <mxCell id="PKRQYKEN7jemMwyMgifE-5" value="" style="rounded=0;whiteSpace=wrap;html=1;fontSize=12;" parent="1" vertex="1">
          <mxGeometry x="-620" y="875" width="50" height="50" as="geometry" />
        </mxCell>
        <mxCell id="PKRQYKEN7jemMwyMgifE-6" value="" style="rounded=0;whiteSpace=wrap;html=1;" parent="1" vertex="1">
          <mxGeometry x="-1150" y="830" width="220" height="317.5" as="geometry" />
        </mxCell>
        <mxCell id="PKRQYKEN7jemMwyMgifE-8" value="" style="rounded=0;whiteSpace=wrap;html=1;" parent="1" vertex="1">
          <mxGeometry x="-1150" y="835" width="220" height="25" as="geometry" />
        </mxCell>
        <mxCell id="PKRQYKEN7jemMwyMgifE-11" value="" style="shape=partialRectangle;whiteSpace=wrap;html=1;left=0;right=0;fillColor=none;" parent="1" vertex="1">
          <mxGeometry x="-1150" y="843.75" width="30" height="10" as="geometry" />
        </mxCell>
        <mxCell id="PKRQYKEN7jemMwyMgifE-12" value="" style="line;strokeWidth=4;direction=south;html=1;perimeter=backbonePerimeter;points=[];outlineConnect=0;" parent="1" vertex="1">
          <mxGeometry x="-1120" y="833.75" width="10" height="30" as="geometry" />
        </mxCell>
        <mxCell id="PKRQYKEN7jemMwyMgifE-13" value="Titel" style="text;html=1;strokeColor=none;fillColor=none;align=center;verticalAlign=middle;whiteSpace=wrap;rounded=0;" parent="1" vertex="1">
          <mxGeometry x="-1070" y="835" width="60" height="30" as="geometry" />
        </mxCell>
        <mxCell id="PKRQYKEN7jemMwyMgifE-14" value="" style="rounded=0;whiteSpace=wrap;html=1;direction=south;" parent="1" vertex="1">
          <mxGeometry x="-1150" y="860" width="110" height="290" as="geometry" />
        </mxCell>
        <mxCell id="HcNr1BR1rxU0Tzh-iVO2-4" value="Image" style="text;html=1;strokeColor=none;fillColor=none;align=center;verticalAlign=middle;whiteSpace=wrap;rounded=0;fontSize=10;" vertex="1" parent="1">
          <mxGeometry x="-1732.5" y="500" width="85" height="30" as="geometry" />
        </mxCell>
        <mxCell id="HcNr1BR1rxU0Tzh-iVO2-7" value="Image" style="text;html=1;strokeColor=none;fillColor=none;align=center;verticalAlign=middle;whiteSpace=wrap;rounded=0;fontSize=10;" vertex="1" parent="1">
          <mxGeometry x="-1732.5" y="573.75" width="85" height="30" as="geometry" />
        </mxCell>
        <mxCell id="HcNr1BR1rxU0Tzh-iVO2-9" value="" style="rounded=0;whiteSpace=wrap;html=1;" vertex="1" parent="1">
          <mxGeometry x="-1707.5" y="570" width="177.5" height="70" as="geometry" />
        </mxCell>
        <mxCell id="HcNr1BR1rxU0Tzh-iVO2-10" value="Image" style="text;html=1;strokeColor=none;fillColor=none;align=center;verticalAlign=middle;whiteSpace=wrap;rounded=0;fontSize=10;" vertex="1" parent="1">
          <mxGeometry x="-1732.5" y="590" width="85" height="30" as="geometry" />
        </mxCell>
        <mxCell id="HcNr1BR1rxU0Tzh-iVO2-11" value="Product Name" style="text;html=1;strokeColor=none;fillColor=none;align=center;verticalAlign=middle;whiteSpace=wrap;rounded=0;fontSize=10;" vertex="1" parent="1">
          <mxGeometry x="-1670" y="562.5" width="85" height="30" as="geometry" />
        </mxCell>
        <mxCell id="HcNr1BR1rxU0Tzh-iVO2-12" value="" style="endArrow=none;html=1;rounded=0;exitX=0.204;exitY=0.977;exitDx=0;exitDy=0;exitPerimeter=0;" edge="1" parent="1" source="HcNr1BR1rxU0Tzh-iVO2-9">
          <mxGeometry width="50" height="50" relative="1" as="geometry">
            <mxPoint x="-1640" y="653.75" as="sourcePoint" />
            <mxPoint x="-1670" y="573.75" as="targetPoint" />
          </mxGeometry>
        </mxCell>
        <mxCell id="HcNr1BR1rxU0Tzh-iVO2-13" value="Change Quantity" style="rounded=0;whiteSpace=wrap;html=1;fontSize=10;" vertex="1" parent="1">
          <mxGeometry x="-1610" y="615" width="80" height="20" as="geometry" />
        </mxCell>
        <mxCell id="HcNr1BR1rxU0Tzh-iVO2-14" value="Delete Item" style="shape=delay;whiteSpace=wrap;html=1;fontSize=10;direction=west;" vertex="1" parent="1">
          <mxGeometry x="-1582.5" y="575" width="60" height="20" as="geometry" />
        </mxCell>
      </root>
    </mxGraphModel>
  </diagram>
</mxfile>
